<mxfile host="app.diagrams.net" modified="2020-10-26T09:34:49.300Z" agent="5.0 (Windows NT 10.0; Win64; x64) AppleWebKit/537.36 (KHTML, like Gecko) Chrome/86.0.4240.111 Safari/537.36" etag="n06qNuJFOzsd_sj1yWeR" version="13.8.2" type="github">
  <diagram id="6a731a19-8d31-9384-78a2-239565b7b9f0" name="Page-1">
    <mxGraphModel dx="1108" dy="450" grid="1" gridSize="10" guides="1" tooltips="1" connect="1" arrows="1" fold="1" page="1" pageScale="1" pageWidth="1169" pageHeight="827" background="#ffffff" math="0" shadow="0">
      <root>
        <mxCell id="0" />
        <mxCell id="1" parent="0" />
        <mxCell id="UwHsAQ5QnaKbsiEreejs-56" value="web" style="edgeStyle=orthogonalEdgeStyle;rounded=0;orthogonalLoop=1;jettySize=auto;html=1;entryX=0.5;entryY=0;entryDx=0;entryDy=0;" parent="1" source="UwHsAQ5QnaKbsiEreejs-55" edge="1" target="UwHsAQ5QnaKbsiEreejs-57">
          <mxGeometry relative="1" as="geometry">
            <mxPoint x="360" y="160" as="targetPoint" />
          </mxGeometry>
        </mxCell>
        <mxCell id="UwHsAQ5QnaKbsiEreejs-55" value="start" style="html=1;dashed=0;whitespace=wrap;shape=mxgraph.dfd.start" parent="1" vertex="1">
          <mxGeometry x="317.5" y="110" width="80" height="30" as="geometry" />
        </mxCell>
        <mxCell id="vLJDxK3rbP07pjGgtTq4-82" style="edgeStyle=orthogonalEdgeStyle;rounded=0;orthogonalLoop=1;jettySize=auto;html=1;" edge="1" parent="1" source="UwHsAQ5QnaKbsiEreejs-57">
          <mxGeometry relative="1" as="geometry">
            <mxPoint x="360" y="290" as="targetPoint" />
          </mxGeometry>
        </mxCell>
        <mxCell id="UwHsAQ5QnaKbsiEreejs-57" value="https api request" style="shape=ellipse;html=1;dashed=0;whitespace=wrap;perimeter=ellipsePerimeter;" parent="1" vertex="1">
          <mxGeometry x="310" y="200" width="100" height="50" as="geometry" />
        </mxCell>
        <mxCell id="vLJDxK3rbP07pjGgtTq4-84" value="no" style="edgeStyle=orthogonalEdgeStyle;rounded=0;orthogonalLoop=1;jettySize=auto;html=1;" edge="1" parent="1" source="UwHsAQ5QnaKbsiEreejs-67" target="vLJDxK3rbP07pjGgtTq4-50">
          <mxGeometry relative="1" as="geometry">
            <Array as="points">
              <mxPoint x="420" y="330" />
              <mxPoint x="420" y="330" />
            </Array>
          </mxGeometry>
        </mxCell>
        <mxCell id="vLJDxK3rbP07pjGgtTq4-90" value="yes" style="edgeStyle=orthogonalEdgeStyle;rounded=0;orthogonalLoop=1;jettySize=auto;html=1;entryX=0.5;entryY=0;entryDx=0;entryDy=0;" edge="1" parent="1" source="UwHsAQ5QnaKbsiEreejs-67" target="UwHsAQ5QnaKbsiEreejs-79">
          <mxGeometry x="0.0286" relative="1" as="geometry">
            <mxPoint as="offset" />
          </mxGeometry>
        </mxCell>
        <mxCell id="vLJDxK3rbP07pjGgtTq4-102" value="yes" style="edgeStyle=orthogonalEdgeStyle;rounded=0;orthogonalLoop=1;jettySize=auto;html=1;" edge="1" parent="1" source="UwHsAQ5QnaKbsiEreejs-67">
          <mxGeometry relative="1" as="geometry">
            <mxPoint x="560" y="390" as="targetPoint" />
            <Array as="points">
              <mxPoint x="360" y="390" />
            </Array>
          </mxGeometry>
        </mxCell>
        <mxCell id="vLJDxK3rbP07pjGgtTq4-113" value="" style="edgeStyle=orthogonalEdgeStyle;rounded=0;orthogonalLoop=1;jettySize=auto;html=1;" edge="1" parent="1" source="UwHsAQ5QnaKbsiEreejs-67" target="vLJDxK3rbP07pjGgtTq4-50">
          <mxGeometry relative="1" as="geometry" />
        </mxCell>
        <mxCell id="UwHsAQ5QnaKbsiEreejs-67" value="uploda data" style="shape=rhombus;html=1;dashed=0;whitespace=wrap;perimeter=rhombusPerimeter;direction=south;" parent="1" vertex="1">
          <mxGeometry x="322.5" y="290" width="75" height="80" as="geometry" />
        </mxCell>
        <mxCell id="vLJDxK3rbP07pjGgtTq4-118" style="edgeStyle=orthogonalEdgeStyle;rounded=0;orthogonalLoop=1;jettySize=auto;html=1;entryX=0.5;entryY=0;entryDx=0;entryDy=0;entryPerimeter=0;" edge="1" parent="1" source="UwHsAQ5QnaKbsiEreejs-76" target="UwHsAQ5QnaKbsiEreejs-77">
          <mxGeometry relative="1" as="geometry" />
        </mxCell>
        <mxCell id="UwHsAQ5QnaKbsiEreejs-76" value="DBIA" style="shape=ellipse;html=1;dashed=0;whitespace=wrap;perimeter=ellipsePerimeter;" parent="1" vertex="1">
          <mxGeometry x="790" y="430" width="100" height="50" as="geometry" />
        </mxCell>
        <mxCell id="vLJDxK3rbP07pjGgtTq4-86" value="https api result" style="edgeStyle=orthogonalEdgeStyle;rounded=0;orthogonalLoop=1;jettySize=auto;html=1;" edge="1" parent="1" source="UwHsAQ5QnaKbsiEreejs-77" target="UwHsAQ5QnaKbsiEreejs-79">
          <mxGeometry x="0.0303" y="-20" relative="1" as="geometry">
            <Array as="points">
              <mxPoint x="570" y="570" />
              <mxPoint x="570" y="570" />
            </Array>
            <mxPoint x="20" y="20" as="offset" />
          </mxGeometry>
        </mxCell>
        <mxCell id="UwHsAQ5QnaKbsiEreejs-77" value="china unity data&amp;nbsp;" style="strokeWidth=2;html=1;shape=mxgraph.flowchart.stored_data;whiteSpace=wrap;" parent="1" vertex="1">
          <mxGeometry x="780" y="545" width="120" height="60" as="geometry" />
        </mxCell>
        <mxCell id="vLJDxK3rbP07pjGgtTq4-67" value="" style="edgeStyle=orthogonalEdgeStyle;rounded=0;orthogonalLoop=1;jettySize=auto;html=1;" edge="1" parent="1" source="UwHsAQ5QnaKbsiEreejs-79">
          <mxGeometry relative="1" as="geometry">
            <mxPoint x="360" y="620" as="targetPoint" />
          </mxGeometry>
        </mxCell>
        <mxCell id="UwHsAQ5QnaKbsiEreejs-79" value="Data set" style="html=1;dashed=0;whitespace=wrap;" parent="1" vertex="1">
          <mxGeometry x="310" y="545" width="100" height="50" as="geometry" />
        </mxCell>
        <mxCell id="UwHsAQ5QnaKbsiEreejs-85" style="edgeStyle=orthogonalEdgeStyle;rounded=0;orthogonalLoop=1;jettySize=auto;html=1;entryX=0.5;entryY=0.5;entryDx=0;entryDy=-15;entryPerimeter=0;" parent="1" source="UwHsAQ5QnaKbsiEreejs-84" target="UwHsAQ5QnaKbsiEreejs-87" edge="1">
          <mxGeometry relative="1" as="geometry">
            <mxPoint x="360" y="640" as="targetPoint" />
            <Array as="points">
              <mxPoint x="360" y="750" />
            </Array>
          </mxGeometry>
        </mxCell>
        <mxCell id="UwHsAQ5QnaKbsiEreejs-84" value="api/charts/report&amp;nbsp;" style="shape=parallelogram;perimeter=parallelogramPerimeter;whiteSpace=wrap;html=1;dashed=0;" parent="1" vertex="1">
          <mxGeometry x="300" y="690" width="120" height="60" as="geometry" />
        </mxCell>
        <mxCell id="UwHsAQ5QnaKbsiEreejs-87" value="end" style="html=1;dashed=0;whitespace=wrap;shape=mxgraph.dfd.start" parent="1" vertex="1">
          <mxGeometry x="320" y="797" width="80" height="30" as="geometry" />
        </mxCell>
        <mxCell id="vLJDxK3rbP07pjGgtTq4-49" value="cloud platforn" style="text;html=1;strokeColor=none;fillColor=none;align=center;verticalAlign=middle;whiteSpace=wrap;rounded=0;" vertex="1" parent="1">
          <mxGeometry x="420" y="110" width="80" height="20" as="geometry" />
        </mxCell>
        <mxCell id="vLJDxK3rbP07pjGgtTq4-114" style="edgeStyle=orthogonalEdgeStyle;rounded=0;orthogonalLoop=1;jettySize=auto;html=1;exitX=0.5;exitY=1;exitDx=0;exitDy=0;entryX=0.5;entryY=0;entryDx=0;entryDy=0;" edge="1" parent="1" source="vLJDxK3rbP07pjGgtTq4-50" target="vLJDxK3rbP07pjGgtTq4-91">
          <mxGeometry relative="1" as="geometry">
            <mxPoint x="560" y="420" as="targetPoint" />
          </mxGeometry>
        </mxCell>
        <mxCell id="vLJDxK3rbP07pjGgtTq4-50" value="use china&lt;br&gt;unity&amp;nbsp; data" style="shape=rhombus;html=1;dashed=0;whitespace=wrap;perimeter=rhombusPerimeter;" vertex="1" parent="1">
          <mxGeometry x="520" y="295" width="80" height="70" as="geometry" />
        </mxCell>
        <mxCell id="vLJDxK3rbP07pjGgtTq4-92" value="https api request" style="edgeStyle=orthogonalEdgeStyle;rounded=0;orthogonalLoop=1;jettySize=auto;html=1;entryX=0;entryY=0.5;entryDx=0;entryDy=0;" edge="1" parent="1" source="vLJDxK3rbP07pjGgtTq4-91" target="UwHsAQ5QnaKbsiEreejs-76">
          <mxGeometry relative="1" as="geometry">
            <mxPoint x="730" y="455" as="targetPoint" />
          </mxGeometry>
        </mxCell>
        <mxCell id="vLJDxK3rbP07pjGgtTq4-91" value="china local api" style="shape=ellipse;html=1;dashed=0;whitespace=wrap;perimeter=ellipsePerimeter;" vertex="1" parent="1">
          <mxGeometry x="510" y="430" width="100" height="50" as="geometry" />
        </mxCell>
        <mxCell id="vLJDxK3rbP07pjGgtTq4-108" style="edgeStyle=orthogonalEdgeStyle;rounded=0;orthogonalLoop=1;jettySize=auto;html=1;exitX=0.5;exitY=1;exitDx=0;exitDy=0;entryX=0.5;entryY=0;entryDx=0;entryDy=0;" edge="1" parent="1" source="vLJDxK3rbP07pjGgtTq4-106" target="UwHsAQ5QnaKbsiEreejs-84">
          <mxGeometry relative="1" as="geometry" />
        </mxCell>
        <mxCell id="vLJDxK3rbP07pjGgtTq4-106" value="Results of model analysis" style="html=1;dashed=0;whitespace=wrap;" vertex="1" parent="1">
          <mxGeometry x="280" y="620" width="160" height="50" as="geometry" />
        </mxCell>
        <mxCell id="vLJDxK3rbP07pjGgtTq4-109" value="模型分析结果" style="text;html=1;strokeColor=none;fillColor=none;align=center;verticalAlign=middle;whiteSpace=wrap;rounded=0;" vertex="1" parent="1">
          <mxGeometry x="460" y="635" width="40" height="20" as="geometry" />
        </mxCell>
        <mxCell id="vLJDxK3rbP07pjGgtTq4-111" value="数据集合" style="text;html=1;strokeColor=none;fillColor=none;align=center;verticalAlign=middle;whiteSpace=wrap;rounded=0;" vertex="1" parent="1">
          <mxGeometry x="240" y="560" width="50" height="20" as="geometry" />
        </mxCell>
        <mxCell id="vLJDxK3rbP07pjGgtTq4-112" value="输出形式" style="text;html=1;strokeColor=none;fillColor=none;align=center;verticalAlign=middle;whiteSpace=wrap;rounded=0;" vertex="1" parent="1">
          <mxGeometry x="450" y="710" width="50" height="20" as="geometry" />
        </mxCell>
      </root>
    </mxGraphModel>
  </diagram>
</mxfile>
